<svg xmlns="http://www.w3.org/2000/svg" xmlns:xlink="http://www.w3.org/1999/xlink" width="1122" zoomAndPan="magnify" viewBox="0 0 841.92 595.499987" height="793" preserveAspectRatio="xMidYMid meet" version="1.0"><defs><g/></defs><g fill="#ffffff" fill-opacity="1"><g transform="translate(184.417467, 338.398636)"><g><path d="M 71.578125 -38.34375 L 71.578125 -7.40625 C 67.691406 -4.550781 63.550781 -2.460938 59.15625 -1.140625 C 54.769531 0.179688 50.070312 0.84375 45.0625 0.84375 C 38.820312 0.84375 33.171875 -0.125 28.109375 -2.0625 C 23.054688 -4 18.738281 -6.695312 15.15625 -10.15625 C 11.570312 -13.613281 8.8125 -17.738281 6.875 -22.53125 C 4.9375 -27.332031 3.96875 -32.570312 3.96875 -38.25 C 3.96875 -44 4.898438 -49.269531 6.765625 -54.0625 C 8.640625 -58.851562 11.296875 -62.976562 14.734375 -66.4375 C 18.171875 -69.894531 22.335938 -72.578125 27.234375 -74.484375 C 32.140625 -76.390625 37.644531 -77.34375 43.75 -77.34375 C 46.851562 -77.34375 49.753906 -77.09375 52.453125 -76.59375 C 55.148438 -76.101562 57.648438 -75.425781 59.953125 -74.5625 C 62.265625 -73.695312 64.375 -72.644531 66.28125 -71.40625 C 68.1875 -70.175781 69.929688 -68.820312 71.515625 -67.34375 L 67.453125 -60.890625 C 66.816406 -59.867188 65.984375 -59.242188 64.953125 -59.015625 C 63.929688 -58.785156 62.820312 -59.039062 61.625 -59.78125 C 60.457031 -60.445312 59.289062 -61.113281 58.125 -61.78125 C 56.96875 -62.457031 55.675781 -63.039062 54.25 -63.53125 C 52.820312 -64.019531 51.21875 -64.421875 49.4375 -64.734375 C 47.65625 -65.054688 45.597656 -65.21875 43.265625 -65.21875 C 39.492188 -65.21875 36.082031 -64.582031 33.03125 -63.3125 C 29.976562 -62.050781 27.375 -60.238281 25.21875 -57.875 C 23.070312 -55.507812 21.414062 -52.664062 20.25 -49.34375 C 19.09375 -46.03125 18.515625 -42.332031 18.515625 -38.25 C 18.515625 -33.875 19.140625 -29.96875 20.390625 -26.53125 C 21.640625 -23.09375 23.398438 -20.179688 25.671875 -17.796875 C 27.953125 -15.421875 30.695312 -13.601562 33.90625 -12.34375 C 37.113281 -11.09375 40.691406 -10.46875 44.640625 -10.46875 C 47.460938 -10.46875 49.984375 -10.765625 52.203125 -11.359375 C 54.429688 -11.960938 56.601562 -12.78125 58.71875 -13.8125 L 58.71875 -27.671875 L 49.09375 -27.671875 C 48.175781 -27.671875 47.460938 -27.925781 46.953125 -28.4375 C 46.441406 -28.945312 46.1875 -29.570312 46.1875 -30.3125 L 46.1875 -38.34375 Z M 71.578125 -38.34375 "/></g></g></g><g fill="#ffffff" fill-opacity="1"><g transform="translate(253.168942, 338.398636)"><g><path d="M 35.125 -23.171875 C 31.351562 -22.992188 28.175781 -22.664062 25.59375 -22.1875 C 23.019531 -21.71875 20.957031 -21.109375 19.40625 -20.359375 C 17.863281 -19.617188 16.753906 -18.753906 16.078125 -17.765625 C 15.410156 -16.785156 15.078125 -15.710938 15.078125 -14.546875 C 15.078125 -12.253906 15.753906 -10.613281 17.109375 -9.625 C 18.472656 -8.632812 20.242188 -8.140625 22.421875 -8.140625 C 25.109375 -8.140625 27.429688 -8.625 29.390625 -9.59375 C 31.347656 -10.570312 33.257812 -12.046875 35.125 -14.015625 Z M 5.1875 -46.703125 C 11.425781 -52.421875 18.9375 -55.28125 27.71875 -55.28125 C 30.894531 -55.28125 33.734375 -54.757812 36.234375 -53.71875 C 38.734375 -52.675781 40.847656 -51.226562 42.578125 -49.375 C 44.304688 -47.53125 45.617188 -45.316406 46.515625 -42.734375 C 47.421875 -40.160156 47.875 -37.34375 47.875 -34.28125 L 47.875 0 L 41.953125 0 C 40.710938 0 39.757812 -0.179688 39.09375 -0.546875 C 38.425781 -0.921875 37.894531 -1.671875 37.5 -2.796875 L 36.34375 -6.71875 C 34.96875 -5.476562 33.625 -4.390625 32.3125 -3.453125 C 31.007812 -2.523438 29.648438 -1.742188 28.234375 -1.109375 C 26.828125 -0.472656 25.320312 0.0078125 23.71875 0.34375 C 22.113281 0.675781 20.34375 0.84375 18.40625 0.84375 C 16.113281 0.84375 14 0.535156 12.0625 -0.078125 C 10.125 -0.691406 8.445312 -1.613281 7.03125 -2.84375 C 5.625 -4.082031 4.53125 -5.617188 3.75 -7.453125 C 2.976562 -9.285156 2.59375 -11.421875 2.59375 -13.859375 C 2.59375 -15.234375 2.820312 -16.597656 3.28125 -17.953125 C 3.738281 -19.316406 4.488281 -20.613281 5.53125 -21.84375 C 6.570312 -23.082031 7.921875 -24.25 9.578125 -25.34375 C 11.234375 -26.4375 13.269531 -27.382812 15.6875 -28.1875 C 18.101562 -29 20.914062 -29.660156 24.125 -30.171875 C 27.332031 -30.691406 31 -31.003906 35.125 -31.109375 L 35.125 -34.28125 C 35.125 -37.914062 34.347656 -40.601562 32.796875 -42.34375 C 31.242188 -44.09375 29.003906 -44.96875 26.078125 -44.96875 C 23.960938 -44.96875 22.207031 -44.71875 20.8125 -44.21875 C 19.414062 -43.726562 18.1875 -43.171875 17.125 -42.546875 C 16.070312 -41.929688 15.113281 -41.378906 14.25 -40.890625 C 13.382812 -40.398438 12.425781 -40.15625 11.375 -40.15625 C 10.457031 -40.15625 9.679688 -40.390625 9.046875 -40.859375 C 8.410156 -41.335938 7.898438 -41.894531 7.515625 -42.53125 Z M 5.1875 -46.703125 "/></g></g></g><g fill="#ffffff" fill-opacity="1"><g transform="translate(298.808763, 338.398636)"><g><path d="M 40.515625 -40.421875 C 39.035156 -42.210938 37.421875 -43.476562 35.671875 -44.21875 C 33.929688 -44.957031 32.054688 -45.328125 30.046875 -45.328125 C 28.066406 -45.328125 26.285156 -44.957031 24.703125 -44.21875 C 23.117188 -43.476562 21.757812 -42.359375 20.625 -40.859375 C 19.5 -39.359375 18.632812 -37.453125 18.03125 -35.140625 C 17.4375 -32.835938 17.140625 -30.117188 17.140625 -26.984375 C 17.140625 -23.804688 17.394531 -21.113281 17.90625 -18.90625 C 18.414062 -16.707031 19.144531 -14.910156 20.09375 -13.515625 C 21.050781 -12.117188 22.21875 -11.113281 23.59375 -10.5 C 24.96875 -9.882812 26.5 -9.578125 28.1875 -9.578125 C 30.90625 -9.578125 33.21875 -10.140625 35.125 -11.265625 C 37.03125 -12.390625 38.828125 -13.992188 40.515625 -16.078125 Z M 53.59375 -78.609375 L 53.59375 0 L 45.59375 0 C 43.863281 0 42.769531 -0.789062 42.3125 -2.375 L 41.203125 -7.625 C 39.015625 -5.113281 36.5 -3.082031 33.65625 -1.53125 C 30.820312 0.0195312 27.519531 0.796875 23.75 0.796875 C 20.789062 0.796875 18.078125 0.179688 15.609375 -1.046875 C 13.140625 -2.285156 11.015625 -4.078125 9.234375 -6.421875 C 7.453125 -8.765625 6.078125 -11.664062 5.109375 -15.125 C 4.140625 -18.582031 3.65625 -22.535156 3.65625 -26.984375 C 3.65625 -31.003906 4.203125 -34.738281 5.296875 -38.1875 C 6.390625 -41.644531 7.957031 -44.644531 10 -47.1875 C 12.039062 -49.726562 14.488281 -51.710938 17.34375 -53.140625 C 20.207031 -54.566406 23.421875 -55.28125 26.984375 -55.28125 C 30.015625 -55.28125 32.601562 -54.800781 34.75 -53.84375 C 36.90625 -52.894531 38.828125 -51.609375 40.515625 -49.984375 L 40.515625 -78.609375 Z M 53.59375 -78.609375 "/></g></g></g><g fill="#ffffff" fill-opacity="1"><g transform="translate(350.795022, 338.398636)"><g><path d="M 26.296875 -28.453125 C 27.910156 -28.453125 29.316406 -28.671875 30.515625 -29.109375 C 31.722656 -29.554688 32.722656 -30.164062 33.515625 -30.9375 C 34.304688 -31.71875 34.90625 -32.65625 35.3125 -33.75 C 35.71875 -34.84375 35.921875 -36.039062 35.921875 -37.34375 C 35.921875 -40.019531 35.117188 -42.144531 33.515625 -43.71875 C 31.910156 -45.289062 29.503906 -46.078125 26.296875 -46.078125 C 23.085938 -46.078125 20.675781 -45.289062 19.0625 -43.71875 C 17.457031 -42.144531 16.65625 -40.019531 16.65625 -37.34375 C 16.65625 -36.070312 16.859375 -34.890625 17.265625 -33.796875 C 17.671875 -32.703125 18.269531 -31.757812 19.0625 -30.96875 C 19.863281 -30.175781 20.867188 -29.554688 22.078125 -29.109375 C 23.296875 -28.671875 24.703125 -28.453125 26.296875 -28.453125 Z M 41.046875 2.4375 C 41.046875 1.375 40.726562 0.507812 40.09375 -0.15625 C 39.457031 -0.820312 38.59375 -1.34375 37.5 -1.71875 C 36.40625 -2.09375 35.125 -2.363281 33.65625 -2.53125 C 32.195312 -2.707031 30.648438 -2.835938 29.015625 -2.921875 C 27.378906 -3.015625 25.6875 -3.097656 23.9375 -3.171875 C 22.1875 -3.242188 20.484375 -3.382812 18.828125 -3.59375 C 17.378906 -2.78125 16.207031 -1.828125 15.3125 -0.734375 C 14.414062 0.359375 13.96875 1.625 13.96875 3.0625 C 13.96875 4.019531 14.203125 4.910156 14.671875 5.734375 C 15.148438 6.566406 15.910156 7.28125 16.953125 7.875 C 17.992188 8.476562 19.34375 8.945312 21 9.28125 C 22.65625 9.613281 24.679688 9.78125 27.078125 9.78125 C 29.515625 9.78125 31.613281 9.59375 33.375 9.21875 C 35.144531 8.851562 36.601562 8.34375 37.75 7.6875 C 38.894531 7.039062 39.726562 6.265625 40.25 5.359375 C 40.78125 4.460938 41.046875 3.488281 41.046875 2.4375 Z M 54.0625 -52.421875 L 54.0625 -47.5625 C 54.0625 -46.007812 53.128906 -45.054688 51.265625 -44.703125 L 46.390625 -43.796875 C 47.128906 -41.929688 47.5 -39.882812 47.5 -37.65625 C 47.5 -34.976562 46.960938 -32.554688 45.890625 -30.390625 C 44.816406 -28.222656 43.328125 -26.378906 41.421875 -24.859375 C 39.515625 -23.347656 37.265625 -22.175781 34.671875 -21.34375 C 32.078125 -20.507812 29.285156 -20.09375 26.296875 -20.09375 C 25.234375 -20.09375 24.207031 -20.144531 23.21875 -20.25 C 22.226562 -20.363281 21.257812 -20.507812 20.3125 -20.6875 C 18.625 -19.664062 17.78125 -18.519531 17.78125 -17.25 C 17.78125 -16.15625 18.28125 -15.351562 19.28125 -14.84375 C 20.289062 -14.332031 21.625 -13.96875 23.28125 -13.75 C 24.9375 -13.539062 26.820312 -13.410156 28.9375 -13.359375 C 31.050781 -13.304688 33.21875 -13.191406 35.4375 -13.015625 C 37.664062 -12.835938 39.835938 -12.523438 41.953125 -12.078125 C 44.066406 -11.640625 45.953125 -10.941406 47.609375 -9.984375 C 49.265625 -9.035156 50.59375 -7.742188 51.59375 -6.109375 C 52.601562 -4.472656 53.109375 -2.363281 53.109375 0.21875 C 53.109375 2.613281 52.515625 4.9375 51.328125 7.1875 C 50.148438 9.445312 48.441406 11.457031 46.203125 13.21875 C 43.960938 14.988281 41.210938 16.410156 37.953125 17.484375 C 34.691406 18.554688 30.976562 19.09375 26.8125 19.09375 C 22.726562 19.09375 19.164062 18.695312 16.125 17.90625 C 13.09375 17.113281 10.570312 16.054688 8.5625 14.734375 C 6.550781 13.410156 5.050781 11.882812 4.0625 10.15625 C 3.082031 8.425781 2.59375 6.628906 2.59375 4.765625 C 2.59375 2.222656 3.359375 0.0976562 4.890625 -1.609375 C 6.421875 -3.316406 8.53125 -4.6875 11.21875 -5.71875 C 9.769531 -6.457031 8.617188 -7.441406 7.765625 -8.671875 C 6.921875 -9.910156 6.5 -11.535156 6.5 -13.546875 C 6.5 -14.359375 6.648438 -15.191406 6.953125 -16.046875 C 7.253906 -16.910156 7.695312 -17.765625 8.28125 -18.609375 C 8.863281 -19.460938 9.59375 -20.269531 10.46875 -21.03125 C 11.351562 -21.789062 12.394531 -22.46875 13.59375 -23.0625 C 10.84375 -24.539062 8.679688 -26.515625 7.109375 -28.984375 C 5.546875 -31.453125 4.765625 -34.34375 4.765625 -37.65625 C 4.765625 -40.34375 5.300781 -42.769531 6.375 -44.9375 C 7.445312 -47.101562 8.941406 -48.953125 10.859375 -50.484375 C 12.785156 -52.023438 15.0625 -53.195312 17.6875 -54 C 20.320312 -54.8125 23.191406 -55.21875 26.296875 -55.21875 C 28.617188 -55.21875 30.800781 -54.976562 32.84375 -54.5 C 34.894531 -54.03125 36.765625 -53.335938 38.453125 -52.421875 Z M 54.0625 -52.421875 "/></g></g></g><g fill="#ffffff" fill-opacity="1"><g transform="translate(398.603211, 338.398636)"><g><path d="M 41.421875 -33.375 C 41.421875 -35.070312 41.179688 -36.671875 40.703125 -38.171875 C 40.222656 -39.671875 39.507812 -40.984375 38.5625 -42.109375 C 37.613281 -43.234375 36.40625 -44.117188 34.9375 -44.765625 C 33.476562 -45.421875 31.773438 -45.75 29.828125 -45.75 C 26.054688 -45.75 23.085938 -44.671875 20.921875 -42.515625 C 18.753906 -40.367188 17.367188 -37.320312 16.765625 -33.375 Z M 16.5 -25.5 C 16.71875 -22.707031 17.210938 -20.296875 17.984375 -18.265625 C 18.765625 -16.242188 19.785156 -14.570312 21.046875 -13.25 C 22.316406 -11.925781 23.820312 -10.9375 25.5625 -10.28125 C 27.3125 -9.632812 29.25 -9.3125 31.375 -9.3125 C 33.488281 -9.3125 35.3125 -9.554688 36.84375 -10.046875 C 38.375 -10.546875 39.710938 -11.09375 40.859375 -11.6875 C 42.003906 -12.289062 43.007812 -12.835938 43.875 -13.328125 C 44.738281 -13.828125 45.578125 -14.078125 46.390625 -14.078125 C 47.484375 -14.078125 48.296875 -13.671875 48.828125 -12.859375 L 52.578125 -8.09375 C 51.128906 -6.394531 49.503906 -4.972656 47.703125 -3.828125 C 45.910156 -2.679688 44.035156 -1.765625 42.078125 -1.078125 C 40.117188 -0.390625 38.125 0.09375 36.09375 0.375 C 34.070312 0.65625 32.109375 0.796875 30.203125 0.796875 C 26.429688 0.796875 22.921875 0.171875 19.671875 -1.078125 C 16.429688 -2.335938 13.613281 -4.191406 11.21875 -6.640625 C 8.820312 -9.085938 6.929688 -12.117188 5.546875 -15.734375 C 4.171875 -19.347656 3.484375 -23.535156 3.484375 -28.296875 C 3.484375 -32.003906 4.082031 -35.488281 5.28125 -38.75 C 6.488281 -42.007812 8.210938 -44.847656 10.453125 -47.265625 C 12.691406 -49.679688 15.421875 -51.59375 18.640625 -53 C 21.867188 -54.414062 25.507812 -55.125 29.5625 -55.125 C 32.988281 -55.125 36.144531 -54.578125 39.03125 -53.484375 C 41.925781 -52.390625 44.414062 -50.789062 46.5 -48.6875 C 48.582031 -46.59375 50.210938 -44.019531 51.390625 -40.96875 C 52.566406 -37.914062 53.15625 -34.429688 53.15625 -30.515625 C 53.15625 -28.546875 52.941406 -27.21875 52.515625 -26.53125 C 52.097656 -25.84375 51.289062 -25.5 50.09375 -25.5 Z M 16.5 -25.5 "/></g></g></g><g fill="#ffffff" fill-opacity="1"><g transform="translate(447.046039, 338.398636)"><g><path d="M 24.546875 0.84375 C 19.816406 0.84375 16.191406 -0.484375 13.671875 -3.140625 C 11.148438 -5.804688 9.890625 -9.484375 9.890625 -14.171875 L 9.890625 -44.484375 L 4.34375 -44.484375 C 3.632812 -44.484375 3.03125 -44.710938 2.53125 -45.171875 C 2.039062 -45.628906 1.796875 -46.316406 1.796875 -47.234375 L 1.796875 -52.421875 L 10.53125 -53.84375 L 13.28125 -68.65625 C 13.457031 -69.363281 13.789062 -69.910156 14.28125 -70.296875 C 14.769531 -70.691406 15.40625 -70.890625 16.1875 -70.890625 L 22.953125 -70.890625 L 22.953125 -53.796875 L 37.453125 -53.796875 L 37.453125 -44.484375 L 22.953125 -44.484375 L 22.953125 -15.078125 C 22.953125 -13.378906 23.363281 -12.054688 24.1875 -11.109375 C 25.019531 -10.160156 26.160156 -9.6875 27.609375 -9.6875 C 28.421875 -9.6875 29.097656 -9.78125 29.640625 -9.96875 C 30.191406 -10.164062 30.671875 -10.367188 31.078125 -10.578125 C 31.484375 -10.785156 31.84375 -10.988281 32.15625 -11.1875 C 32.476562 -11.382812 32.796875 -11.484375 33.109375 -11.484375 C 33.503906 -11.484375 33.820312 -11.382812 34.0625 -11.1875 C 34.3125 -10.988281 34.578125 -10.695312 34.859375 -10.3125 L 38.78125 -3.96875 C 36.875 -2.382812 34.6875 -1.1875 32.21875 -0.375 C 29.75 0.4375 27.191406 0.84375 24.546875 0.84375 Z M 24.546875 0.84375 "/></g></g></g><g fill="#ffffff" fill-opacity="1"><g transform="translate(478.35346, 338.398636)"><g><path d="M 71.578125 -38.34375 L 71.578125 -7.40625 C 67.691406 -4.550781 63.550781 -2.460938 59.15625 -1.140625 C 54.769531 0.179688 50.070312 0.84375 45.0625 0.84375 C 38.820312 0.84375 33.171875 -0.125 28.109375 -2.0625 C 23.054688 -4 18.738281 -6.695312 15.15625 -10.15625 C 11.570312 -13.613281 8.8125 -17.738281 6.875 -22.53125 C 4.9375 -27.332031 3.96875 -32.570312 3.96875 -38.25 C 3.96875 -44 4.898438 -49.269531 6.765625 -54.0625 C 8.640625 -58.851562 11.296875 -62.976562 14.734375 -66.4375 C 18.171875 -69.894531 22.335938 -72.578125 27.234375 -74.484375 C 32.140625 -76.390625 37.644531 -77.34375 43.75 -77.34375 C 46.851562 -77.34375 49.753906 -77.09375 52.453125 -76.59375 C 55.148438 -76.101562 57.648438 -75.425781 59.953125 -74.5625 C 62.265625 -73.695312 64.375 -72.644531 66.28125 -71.40625 C 68.1875 -70.175781 69.929688 -68.820312 71.515625 -67.34375 L 67.453125 -60.890625 C 66.816406 -59.867188 65.984375 -59.242188 64.953125 -59.015625 C 63.929688 -58.785156 62.820312 -59.039062 61.625 -59.78125 C 60.457031 -60.445312 59.289062 -61.113281 58.125 -61.78125 C 56.96875 -62.457031 55.675781 -63.039062 54.25 -63.53125 C 52.820312 -64.019531 51.21875 -64.421875 49.4375 -64.734375 C 47.65625 -65.054688 45.597656 -65.21875 43.265625 -65.21875 C 39.492188 -65.21875 36.082031 -64.582031 33.03125 -63.3125 C 29.976562 -62.050781 27.375 -60.238281 25.21875 -57.875 C 23.070312 -55.507812 21.414062 -52.664062 20.25 -49.34375 C 19.09375 -46.03125 18.515625 -42.332031 18.515625 -38.25 C 18.515625 -33.875 19.140625 -29.96875 20.390625 -26.53125 C 21.640625 -23.09375 23.398438 -20.179688 25.671875 -17.796875 C 27.953125 -15.421875 30.695312 -13.601562 33.90625 -12.34375 C 37.113281 -11.09375 40.691406 -10.46875 44.640625 -10.46875 C 47.460938 -10.46875 49.984375 -10.765625 52.203125 -11.359375 C 54.429688 -11.960938 56.601562 -12.78125 58.71875 -13.8125 L 58.71875 -27.671875 L 49.09375 -27.671875 C 48.175781 -27.671875 47.460938 -27.925781 46.953125 -28.4375 C 46.441406 -28.945312 46.1875 -29.570312 46.1875 -30.3125 L 46.1875 -38.34375 Z M 71.578125 -38.34375 "/></g></g></g><g fill="#ffffff" fill-opacity="1"><g transform="translate(547.104939, 338.398636)"><g><path d="M 18.78125 -44.859375 C 20.46875 -48.097656 22.472656 -50.644531 24.796875 -52.5 C 27.128906 -54.351562 29.882812 -55.28125 33.0625 -55.28125 C 35.5625 -55.28125 37.570312 -54.734375 39.09375 -53.640625 L 38.25 -43.859375 C 38.070312 -43.222656 37.8125 -42.769531 37.46875 -42.5 C 37.132812 -42.238281 36.6875 -42.109375 36.125 -42.109375 C 35.601562 -42.109375 34.820312 -42.195312 33.78125 -42.375 C 32.738281 -42.550781 31.722656 -42.640625 30.734375 -42.640625 C 29.285156 -42.640625 27.992188 -42.425781 26.859375 -42 C 25.734375 -41.570312 24.722656 -40.960938 23.828125 -40.171875 C 22.929688 -39.378906 22.140625 -38.414062 21.453125 -37.28125 C 20.765625 -36.15625 20.117188 -34.875 19.515625 -33.4375 L 19.515625 0 L 6.453125 0 L 6.453125 -54.28125 L 14.125 -54.28125 C 15.46875 -54.28125 16.398438 -54.039062 16.921875 -53.5625 C 17.453125 -53.082031 17.804688 -52.226562 17.984375 -51 Z M 18.78125 -44.859375 "/></g></g></g><g fill="#ffffff" fill-opacity="1"><g transform="translate(578.518094, 338.398636)"><g><path d="M 20 -54.28125 L 20 0 L 6.875 0 L 6.875 -54.28125 Z M 21.796875 -70.09375 C 21.796875 -68.957031 21.566406 -67.894531 21.109375 -66.90625 C 20.648438 -65.925781 20.039062 -65.066406 19.28125 -64.328125 C 18.519531 -63.585938 17.628906 -62.992188 16.609375 -62.546875 C 15.585938 -62.109375 14.492188 -61.890625 13.328125 -61.890625 C 12.203125 -61.890625 11.132812 -62.109375 10.125 -62.546875 C 9.125 -62.992188 8.253906 -63.585938 7.515625 -64.328125 C 6.773438 -65.066406 6.179688 -65.925781 5.734375 -66.90625 C 5.296875 -67.894531 5.078125 -68.957031 5.078125 -70.09375 C 5.078125 -71.257812 5.296875 -72.351562 5.734375 -73.375 C 6.179688 -74.394531 6.773438 -75.273438 7.515625 -76.015625 C 8.253906 -76.753906 9.125 -77.34375 10.125 -77.78125 C 11.132812 -78.226562 12.203125 -78.453125 13.328125 -78.453125 C 14.492188 -78.453125 15.585938 -78.226562 16.609375 -77.78125 C 17.628906 -77.34375 18.519531 -76.753906 19.28125 -76.015625 C 20.039062 -75.273438 20.648438 -74.394531 21.109375 -73.375 C 21.566406 -72.351562 21.796875 -71.257812 21.796875 -70.09375 Z M 21.796875 -70.09375 "/></g></g></g><g fill="#ffffff" fill-opacity="1"><g transform="translate(597.344141, 338.398636)"><g><path d="M 40.515625 -40.421875 C 39.035156 -42.210938 37.421875 -43.476562 35.671875 -44.21875 C 33.929688 -44.957031 32.054688 -45.328125 30.046875 -45.328125 C 28.066406 -45.328125 26.285156 -44.957031 24.703125 -44.21875 C 23.117188 -43.476562 21.757812 -42.359375 20.625 -40.859375 C 19.5 -39.359375 18.632812 -37.453125 18.03125 -35.140625 C 17.4375 -32.835938 17.140625 -30.117188 17.140625 -26.984375 C 17.140625 -23.804688 17.394531 -21.113281 17.90625 -18.90625 C 18.414062 -16.707031 19.144531 -14.910156 20.09375 -13.515625 C 21.050781 -12.117188 22.21875 -11.113281 23.59375 -10.5 C 24.96875 -9.882812 26.5 -9.578125 28.1875 -9.578125 C 30.90625 -9.578125 33.21875 -10.140625 35.125 -11.265625 C 37.03125 -12.390625 38.828125 -13.992188 40.515625 -16.078125 Z M 53.59375 -78.609375 L 53.59375 0 L 45.59375 0 C 43.863281 0 42.769531 -0.789062 42.3125 -2.375 L 41.203125 -7.625 C 39.015625 -5.113281 36.5 -3.082031 33.65625 -1.53125 C 30.820312 0.0195312 27.519531 0.796875 23.75 0.796875 C 20.789062 0.796875 18.078125 0.179688 15.609375 -1.046875 C 13.140625 -2.285156 11.015625 -4.078125 9.234375 -6.421875 C 7.453125 -8.765625 6.078125 -11.664062 5.109375 -15.125 C 4.140625 -18.582031 3.65625 -22.535156 3.65625 -26.984375 C 3.65625 -31.003906 4.203125 -34.738281 5.296875 -38.1875 C 6.390625 -41.644531 7.957031 -44.644531 10 -47.1875 C 12.039062 -49.726562 14.488281 -51.710938 17.34375 -53.140625 C 20.207031 -54.566406 23.421875 -55.28125 26.984375 -55.28125 C 30.015625 -55.28125 32.601562 -54.800781 34.75 -53.84375 C 36.90625 -52.894531 38.828125 -51.609375 40.515625 -49.984375 L 40.515625 -78.609375 Z M 53.59375 -78.609375 "/></g></g></g></svg>